# xmcd
#
# Track frame offsets:
#	182
#	16362
#	24995
#	36100
#	47015
#	62185
#	76615
#	85555
#	96422
#	106690
#	116370
#	122387
#	127620
#	144555
#	154675
#	164510
#	175920
#	188407
#	198357
#	210347
#	219512
#	233112
#
# Disc length: 3317 seconds
#
# Revision: 3
# Processed by: cddbd v1.5.1PL0 Copyright (c) Steve Scherf et al.
# Submitted via: audiograbber 1.83.01
#
DISCID=090cf316
DTITLE=Pinkard and Bowden - Getting Stupid
DYEAR=1900
DGENRE=
TTITLE0=Music Industry
TTITLE1=Elvis Was A Narc
TTITLE2=Don't Pet The Dog
TTITLE3=(I'm Gonna) Beat The Cheat Out Of You
TTITLE4=Momma She's Lazy
TTITLE5=Higher Edu-Cajun
TTITLE6=Drivin' My Wife Away
TTITLE7=Three Mile Island
TTITLE8=Woman With A Gun
TTITLE9=Help Me Make It thru The Yard
TTITLE10=Daddy Sang Bass
TTITLE11=Delta Dawg
TTITLE12=Mail Order Dog
TTITLE13=She Thinks I steal cars
TTITLE14=Sexual Harrasser
TTITLE15=Trailer Park Woman
TTITLE16=Arab, Alabama
TTITLE17=Libyan On A Jet Airplane
TTITLE18=Satellite Dish
TTITLE19=What's A W-4
TTITLE20=Blue Hairs Drivin In My LAne
TTITLE21=I Lobster But Never Flounder
EXTD=
EXTT0=
EXTT1=
EXTT2=
EXTT3=
EXTT4=
EXTT5=
EXTT6=
EXTT7=
EXTT8=
EXTT9=
EXTT10=
EXTT11=
EXTT12=
EXTT13=
EXTT14=
EXTT15=
EXTT16=
EXTT17=
EXTT18=
EXTT19=
EXTT20=
EXTT21=
PLAYORDER=
